<?xml version="1.0" encoding="UTF-8" standalone="no"?>
<!-- Generator: Adobe Illustrator 16.0.0, SVG Export Plug-In . SVG Version: 6.00 Build 0)  -->

<svg
   xmlns:dc="http://purl.org/dc/elements/1.1/"
   xmlns:cc="http://creativecommons.org/ns#"
   xmlns:rdf="http://www.w3.org/1999/02/22-rdf-syntax-ns#"
   xmlns:svg="http://www.w3.org/2000/svg"
   xmlns="http://www.w3.org/2000/svg"
   xmlns:sodipodi="http://sodipodi.sourceforge.net/DTD/sodipodi-0.dtd"
   xmlns:inkscape="http://www.inkscape.org/namespaces/inkscape"
   version="1.1"
   id="Calque_1"
   x="0px"
   y="0px"
   width="212.599px"
   height="192.756px"
   viewBox="0 0 212.599 192.756"
   enable-background="new 0 0 212.599 192.756"
   xml:space="preserve"
   sodipodi:docname="ExpliNavigPlan_white.svg"
   inkscape:version="0.92.5 (2060ec1f9f, 2020-04-08)"><metadata
   id="metadata125"><rdf:RDF><cc:Work
       rdf:about=""><dc:format>image/svg+xml</dc:format><dc:type
         rdf:resource="http://purl.org/dc/dcmitype/StillImage" /><dc:title></dc:title></cc:Work></rdf:RDF></metadata><defs
   id="defs123">
	
	

	
	

	
	

	
	

	

	

	

	

		
		
	
		
			
		
	
		
			
		
	
		
			
		
	
		
			
		
	</defs><sodipodi:namedview
   pagecolor="#505050"
   bordercolor="#eeeeee"
   borderopacity="1"
   objecttolerance="10"
   gridtolerance="10"
   guidetolerance="10"
   inkscape:pageopacity="0"
   inkscape:pageshadow="2"
   inkscape:window-width="1920"
   inkscape:window-height="1027"
   id="namedview121"
   showgrid="false"
   inkscape:zoom="7.3269445"
   inkscape:cx="95.832104"
   inkscape:cy="115.80807"
   inkscape:window-x="0"
   inkscape:window-y="28"
   inkscape:window-maximized="1"
   inkscape:current-layer="Calque_1" />
<path
   fill="none"
   stroke="#000000"
   stroke-width="0.75"
   stroke-miterlimit="10"
   d="M39.685,51.023c0,0,0-28.346,28.346-28.346  s28.347,0,28.347,0s28.346,0,28.346,28.346s11.339,113.386-42.52,113.386S39.685,51.023,39.685,51.023z"
   id="path2"
   style="stroke:#ffffff" />
<line
   fill="#FFFFFF"
   stroke="#000000"
   stroke-width="0.75"
   stroke-miterlimit="10"
   x1="82.205"
   y1="22.677"
   x2="82.205"
   y2="36.851"
   id="line4"
   style="stroke:#ffffff" />
<line
   fill="#FFFFFF"
   stroke="#000000"
   stroke-width="0.75"
   stroke-miterlimit="10"
   x1="82.205"
   y1="76.535"
   x2="82.205"
   y2="96.378"
   id="line6"
   style="stroke:#ffffff" />
<path
   fill="none"
   stroke="#000000"
   stroke-width="0.75"
   stroke-miterlimit="10"
   d="M90.708,68.031c0,4.697-3.807,8.504-8.504,8.504  l0,0c-4.697,0-8.504-3.807-8.504-8.504V45.354c0-4.697,3.807-8.504,8.504-8.504l0,0c4.697,0,8.504,3.807,8.504,8.504V68.031z"
   id="path8"
   style="stroke:#ffffff" />
<line
   fill="none"
   stroke="#000000"
   stroke-width="0.75"
   stroke-miterlimit="10"
   x1="76.535"
   y1="45.354"
   x2="87.874"
   y2="45.354"
   id="line10"
   style="stroke:#ffffff" />
<line
   fill="none"
   stroke="#000000"
   stroke-width="0.75"
   stroke-miterlimit="10"
   x1="76.535"
   y1="51.023"
   x2="87.874"
   y2="51.023"
   id="line12"
   style="stroke:#ffffff" />
<line
   fill="none"
   stroke="#000000"
   stroke-width="0.75"
   stroke-miterlimit="10"
   x1="76.535"
   y1="56.692"
   x2="87.874"
   y2="56.692"
   id="line14"
   style="stroke:#ffffff" />
<line
   fill="none"
   stroke="#000000"
   stroke-width="0.75"
   stroke-miterlimit="10"
   x1="76.535"
   y1="62.361"
   x2="87.874"
   y2="62.361"
   id="line16"
   style="stroke:#ffffff" />
<line
   fill="none"
   stroke="#000000"
   stroke-width="0.75"
   stroke-miterlimit="10"
   x1="76.535"
   y1="68.03"
   x2="87.874"
   y2="68.03"
   id="line18"
   style="stroke:#ffffff" />
<circle
   cx="107.717"
   cy="51.023"
   r="2.835"
   id="circle20"
   style="fill:#ffffff" />
<circle
   cx="82.204"
   cy="51.023"
   r="2.835"
   id="circle22"
   style="fill:#ffffff" />
<circle
   cx="56.693"
   cy="51.023"
   r="2.835"
   id="circle24"
   style="fill:#ffffff" />
<g
   id="g32"
   style="stroke:#ffffff">
		
			<line
   style="fill:none;stroke:#ffffff;stroke-width:0.75;stroke-miterlimit:10"
   id="line26"
   y2="51.376999"
   x2="108.07"
   y1="51.023998"
   x1="107.717"
   stroke-miterlimit="10" />
		<polyline
   style="fill:none;stroke:#ffffff;stroke-width:0.75;stroke-miterlimit:10;stroke-dasharray:1.025, 1.53750000000000009"
   id="polyline28"
   points="    109.158,52.465 121.89,65.197 151.802,65.197   "
   stroke-miterlimit="10" />
		
			<line
   style="fill:none;stroke:#ffffff;stroke-width:0.75;stroke-miterlimit:10"
   id="line30"
   y2="65.196999"
   x2="153.07001"
   y1="65.196999"
   x1="152.57001"
   stroke-miterlimit="10" />
	</g>
<g
   id="g42"
   style="stroke:#ffffff">
		
			<line
   style="fill:none;stroke:#ffffff;stroke-width:0.75;stroke-miterlimit:10"
   id="line36"
   y2="51.376999"
   x2="82.558998"
   y1="51.022999"
   x1="82.206001"
   stroke-miterlimit="10" />
		<polyline
   style="fill:none;stroke:#ffffff;stroke-width:0.75;stroke-miterlimit:10;stroke-dasharray:0.9945, 1.4918"
   id="polyline38"
   points="    83.614,52.432 133.229,102.046 151.824,102.046   "
   stroke-miterlimit="10" />
		
			<line
   style="fill:none;stroke:#ffffff;stroke-width:0.75;stroke-miterlimit:10"
   id="line40"
   y2="102.046"
   x2="153.07001"
   y1="102.046"
   x1="152.57001"
   stroke-miterlimit="10" />
	</g>
<g
   id="g52"
   style="stroke:#ffffff">
		
			<line
   style="fill:none;stroke:#ffffff;stroke-width:0.75;stroke-miterlimit:10"
   id="line46"
   y2="51.376999"
   x2="57.048"
   y1="51.022999"
   x1="56.694"
   stroke-miterlimit="10" />
		<polyline
   style="fill:none;stroke:#ffffff;stroke-width:0.75;stroke-miterlimit:10;stroke-dasharray:1.0021, 1.5031"
   id="polyline48"
   points="    58.111,52.44 144.567,138.896 151.818,138.896   "
   stroke-miterlimit="10" />
		
			<line
   style="fill:none;stroke:#ffffff;stroke-width:0.75;stroke-miterlimit:10"
   id="line50"
   y2="138.896"
   x2="153.07001"
   y1="138.896"
   x1="152.57001"
   stroke-miterlimit="10" />
	</g>
<line
   style="fill:#ffffff"
   id="line56"
   y2="53.858002"
   x2="170.07899"
   y1="62.362"
   x1="170.07899" /><line
   stroke-miterlimit="10"
   x1="170.07899"
   y1="62.362"
   x2="170.07899"
   y2="58.164001"
   id="line58"
   style="fill:#ffffff;stroke:#ffffff;stroke-width:1.5;stroke-miterlimit:10" /><g
   id="g62"
   style="fill:#ffffff">
			<polygon
   points="167.088,59.039 173.071,59.039 170.079,53.858 "
   id="polygon60"
   style="fill:#ffffff" />
		</g>
<line
   style="fill:#ffffff"
   id="line68"
   y2="65.196999"
   x2="181.41701"
   y1="65.196999"
   x1="172.91299" /><line
   stroke-miterlimit="10"
   x1="172.91299"
   y1="65.196999"
   x2="177.11099"
   y2="65.196999"
   id="line70"
   style="fill:#ffffff;stroke:#ffffff;stroke-width:1.5;stroke-miterlimit:10" /><g
   id="g74"
   style="fill:#ffffff">
			<polygon
   points="181.417,65.197 176.236,62.205 176.236,68.188 "
   id="polygon72"
   style="fill:#ffffff" />
		</g>
<line
   style="fill:#ffffff"
   id="line80"
   y2="76.535004"
   x2="170.07899"
   y1="68.030998"
   x1="170.07899" /><line
   stroke-miterlimit="10"
   x1="170.07899"
   y1="68.030998"
   x2="170.07899"
   y2="72.228996"
   id="line82"
   style="fill:#ffffff;stroke:#ffffff;stroke-width:1.5;stroke-miterlimit:10" /><g
   id="g86"
   style="fill:#ffffff">
			<polygon
   points="170.079,76.535 173.07,71.354 167.087,71.354 "
   id="polygon84"
   style="fill:#ffffff" />
		</g>
<line
   style="fill:#ffffff"
   id="line92"
   y2="65.196999"
   x2="158.74001"
   y1="65.196999"
   x1="167.244" /><line
   stroke-miterlimit="10"
   x1="167.244"
   y1="65.196999"
   x2="163.04601"
   y2="65.196999"
   id="line94"
   style="fill:#ffffff;stroke:#ffffff;stroke-width:1.5;stroke-miterlimit:10" /><g
   id="g98"
   style="fill:#ffffff">
			<polygon
   points="163.921,68.188 163.921,62.205 158.74,65.196 "
   id="polygon96"
   style="fill:#ffffff" />
		</g>
<path
   fill="none"
   stroke="#000000"
   stroke-width="1.5"
   stroke-miterlimit="10"
   d="M179.083,84.038"
   id="path104" />
<path
   stroke-miterlimit="10"
   d="m 172.55,127.597 c -1.564,-0.408 -3.26,-0.388 -4.907,0.162 -4.532,1.511 -6.98,6.409 -5.47,10.941 1.511,4.531 6.408,6.981 10.94,5.47 3.097,-1.032 5.221,-3.646 5.773,-6.643"
   id="path106"
   inkscape:connector-curvature="0"
   style="fill:none;stroke:#ffffff;stroke-width:1.5;stroke-miterlimit:10" /><g
   id="g110"
   style="fill:#ffffff;stroke:none">
			<polygon
   points="175.752,138.499 181.732,138.315 178.583,133.229 "
   id="polygon108"
   style="fill:#ffffff;stroke:none" />
		</g>
<circle
   fill="none"
   stroke="#000000"
   stroke-width="1.5"
   stroke-miterlimit="10"
   cx="168.662"
   cy="100.63"
   r="7.086"
   id="circle116"
   style="stroke:#fdfdfd;stroke-opacity:1" />
<line
   fill="none"
   stroke="#000000"
   stroke-width="1.5"
   stroke-miterlimit="10"
   x1="174.33"
   y1="104.882"
   x2="181.417"
   y2="110.551"
   id="line118"
   style="stroke:#ffffff" />
</svg>