<?xml version="1.0" encoding="utf-8"?>
<!-- Generator: Adobe Illustrator 16.0.0, SVG Export Plug-In . SVG Version: 6.00 Build 0)  -->
<!DOCTYPE svg PUBLIC "-//W3C//DTD SVG 1.1//EN" "http://www.w3.org/Graphics/SVG/1.1/DTD/svg11.dtd">
<svg version="1.1" id="Calque_1" xmlns="http://www.w3.org/2000/svg" xmlns:xlink="http://www.w3.org/1999/xlink" x="0px" y="0px"
	 width="212.599px" height="192.756px" viewBox="0 0 212.599 192.756" enable-background="new 0 0 212.599 192.756"
	 xml:space="preserve">
<path fill="none" stroke="#000000" stroke-width="0.75" stroke-miterlimit="10" d="M39.685,51.023c0,0,0-28.346,28.346-28.346
	s28.347,0,28.347,0s28.346,0,28.346,28.346s11.339,113.386-42.52,113.386S39.685,51.023,39.685,51.023z"/>
<line fill="#FFFFFF" stroke="#000000" stroke-width="0.75" stroke-miterlimit="10" x1="82.205" y1="22.677" x2="82.205" y2="36.851"/>
<line fill="#FFFFFF" stroke="#000000" stroke-width="0.75" stroke-miterlimit="10" x1="82.205" y1="76.535" x2="82.205" y2="96.378"/>
<path fill="none" stroke="#000000" stroke-width="0.75" stroke-miterlimit="10" d="M90.708,68.031c0,4.697-3.807,8.504-8.504,8.504
	l0,0c-4.697,0-8.504-3.807-8.504-8.504V45.354c0-4.697,3.807-8.504,8.504-8.504l0,0c4.697,0,8.504,3.807,8.504,8.504V68.031z"/>
<line fill="none" stroke="#000000" stroke-width="0.75" stroke-miterlimit="10" x1="76.535" y1="45.354" x2="87.874" y2="45.354"/>
<line fill="none" stroke="#000000" stroke-width="0.75" stroke-miterlimit="10" x1="76.535" y1="51.023" x2="87.874" y2="51.023"/>
<line fill="none" stroke="#000000" stroke-width="0.75" stroke-miterlimit="10" x1="76.535" y1="56.692" x2="87.874" y2="56.692"/>
<line fill="none" stroke="#000000" stroke-width="0.75" stroke-miterlimit="10" x1="76.535" y1="62.361" x2="87.874" y2="62.361"/>
<line fill="none" stroke="#000000" stroke-width="0.75" stroke-miterlimit="10" x1="76.535" y1="68.03" x2="87.874" y2="68.03"/>
<circle cx="107.717" cy="51.023" r="2.835"/>
<circle cx="82.204" cy="51.023" r="2.835"/>
<circle cx="56.693" cy="51.023" r="2.835"/>
<g>
	<g>
		
			<line fill="none" stroke="#000000" stroke-width="0.75" stroke-miterlimit="10" x1="107.717" y1="51.024" x2="108.07" y2="51.377"/>
		<polyline fill="none" stroke="#000000" stroke-width="0.75" stroke-miterlimit="10" stroke-dasharray="1.025,1.5375" points="
			109.158,52.465 121.89,65.197 151.802,65.197 		"/>
		
			<line fill="none" stroke="#000000" stroke-width="0.75" stroke-miterlimit="10" x1="152.57" y1="65.197" x2="153.07" y2="65.197"/>
	</g>
</g>
<g>
	<g>
		
			<line fill="none" stroke="#000000" stroke-width="0.75" stroke-miterlimit="10" x1="82.206" y1="51.023" x2="82.559" y2="51.377"/>
		<polyline fill="none" stroke="#000000" stroke-width="0.75" stroke-miterlimit="10" stroke-dasharray="0.9945,1.4918" points="
			83.614,52.432 133.229,102.046 151.824,102.046 		"/>
		
			<line fill="none" stroke="#000000" stroke-width="0.75" stroke-miterlimit="10" x1="152.57" y1="102.046" x2="153.07" y2="102.046"/>
	</g>
</g>
<g>
	<g>
		
			<line fill="none" stroke="#000000" stroke-width="0.75" stroke-miterlimit="10" x1="56.694" y1="51.023" x2="57.048" y2="51.377"/>
		<polyline fill="none" stroke="#000000" stroke-width="0.75" stroke-miterlimit="10" stroke-dasharray="1.0021,1.5031" points="
			58.111,52.44 144.567,138.896 151.818,138.896 		"/>
		
			<line fill="none" stroke="#000000" stroke-width="0.75" stroke-miterlimit="10" x1="152.57" y1="138.896" x2="153.07" y2="138.896"/>
	</g>
</g>
<g>
	<line fill="#FFFFFF" x1="170.079" y1="62.362" x2="170.079" y2="53.858"/>
	<g>
		
			<line fill="none" stroke="#000000" stroke-width="1.5" stroke-miterlimit="10" x1="170.079" y1="62.362" x2="170.079" y2="58.164"/>
		<g>
			<polygon points="173.071,59.039 170.079,53.858 167.088,59.039 			"/>
		</g>
	</g>
</g>
<g>
	<line fill="#FFFFFF" x1="172.913" y1="65.197" x2="181.417" y2="65.197"/>
	<g>
		
			<line fill="none" stroke="#000000" stroke-width="1.5" stroke-miterlimit="10" x1="172.913" y1="65.197" x2="177.111" y2="65.197"/>
		<g>
			<polygon points="176.236,68.188 181.417,65.197 176.236,62.205 			"/>
		</g>
	</g>
</g>
<g>
	<line fill="#FFFFFF" x1="170.079" y1="68.031" x2="170.079" y2="76.535"/>
	<g>
		
			<line fill="none" stroke="#000000" stroke-width="1.5" stroke-miterlimit="10" x1="170.079" y1="68.031" x2="170.079" y2="72.229"/>
		<g>
			<polygon points="167.087,71.354 170.079,76.535 173.07,71.354 			"/>
		</g>
	</g>
</g>
<g>
	<line fill="#FFFFFF" x1="167.244" y1="65.197" x2="158.74" y2="65.197"/>
	<g>
		
			<line fill="none" stroke="#000000" stroke-width="1.5" stroke-miterlimit="10" x1="167.244" y1="65.197" x2="163.046" y2="65.197"/>
		<g>
			<polygon points="163.921,62.205 158.74,65.196 163.921,68.188 			"/>
		</g>
	</g>
</g>
<path fill="none" stroke="#000000" stroke-width="1.5" stroke-miterlimit="10" d="M179.083,84.038"/>
<g>
	<g>
		<path fill="none" stroke="#000000" stroke-width="1.5" stroke-miterlimit="10" d="M172.55,127.597
			c-1.564-0.408-3.26-0.388-4.907,0.162c-4.532,1.511-6.98,6.409-5.47,10.941c1.511,4.531,6.408,6.981,10.94,5.47
			c3.097-1.032,5.221-3.646,5.773-6.643"/>
		<g>
			<polygon points="181.732,138.315 178.583,133.229 175.752,138.499 			"/>
		</g>
	</g>
</g>
<circle fill="none" stroke="#000000" stroke-width="1.5" stroke-miterlimit="10" cx="168.662" cy="100.63" r="7.086"/>
<line fill="none" stroke="#000000" stroke-width="1.5" stroke-miterlimit="10" x1="174.33" y1="104.882" x2="181.417" y2="110.551"/>
</svg>
